<?xml version="1.0" encoding="utf-8"?>
<!-- Generator: Adobe Illustrator 27.4.0, SVG Export Plug-In . SVG Version: 6.00 Build 0)  -->
<svg version="1.1" id="Artwork" xmlns="http://www.w3.org/2000/svg" xmlns:xlink="http://www.w3.org/1999/xlink" x="0px" y="0px"
	 width="73px" height="73px" viewBox="0 0 73 73" style="enable-background:new 0 0 73 73;" xml:space="preserve">
<path d="M71.995,19.943c-0.004-0.724-0.013-1.449-0.032-2.173c-0.043-1.577-0.136-3.169-0.416-4.728
	c-0.285-1.584-0.749-3.058-1.482-4.497c-0.72-1.414-1.66-2.707-2.781-3.828s-2.415-2.062-3.829-2.782
	c-1.438-0.732-2.912-1.197-4.495-1.481c-1.56-0.281-3.152-0.373-4.73-0.416c-0.724-0.02-1.448-0.028-2.173-0.032
	C51.197,0,50.337,0,49.477,0H22.523c-0.86,0-1.72,0-2.58,0.005c-0.724,0.004-1.449,0.013-2.173,0.032
	c-1.578,0.043-3.17,0.136-4.73,0.416c-1.583,0.285-3.056,0.749-4.495,1.481c-1.414,0.72-2.707,1.66-3.829,2.782
	C3.595,5.838,2.654,7.131,1.935,8.545c-0.733,1.439-1.197,2.913-1.482,4.497c-0.28,1.56-0.373,3.151-0.416,4.728
	c-0.02,0.724-0.028,1.448-0.032,2.173C0,20.803,0,21.663,0,22.523v26.955c0,0.86,0,1.72,0.005,2.58
	c0.004,0.724,0.013,1.449,0.032,2.173c0.043,1.577,0.136,3.169,0.416,4.728c0.285,1.584,0.749,3.058,1.482,4.497
	c0.72,1.414,1.66,2.707,2.781,3.828c1.122,1.122,2.415,2.062,3.829,2.781c1.438,0.732,2.912,1.197,4.495,1.481
	c1.56,0.281,3.152,0.373,4.73,0.416c0.724,0.02,1.448,0.028,2.173,0.032C20.803,72,21.663,72,22.523,72h26.955
	c0.86,0,1.72,0,2.58-0.005c0.724-0.004,1.449-0.013,2.173-0.032c1.578-0.043,3.17-0.136,4.73-0.416
	c1.583-0.285,3.056-0.749,4.495-1.481c1.414-0.72,2.707-1.66,3.829-2.781c1.121-1.122,2.062-2.415,2.781-3.828
	c0.733-1.439,1.197-2.913,1.482-4.497c0.28-1.56,0.373-3.151,0.416-4.728c0.02-0.724,0.028-1.448,0.032-2.173
	C72,51.197,72,50.337,72,49.477V22.523C72,21.663,72,20.803,71.995,19.943z M41.515,47.715c-0.172,2.017-0.497,4.707-0.923,7.446
	c-0.303,1.949-0.549,3.002-0.773,3.755c-0.363,1.221-1.72,2.289-3.842,2.289s-3.479-1.068-3.842-2.289
	c-0.224-0.753-0.47-1.806-0.773-3.755c-0.425-2.739-0.751-5.429-0.923-7.446c-0.18-2.117-0.274-3.441-0.107-4.978
	c0.086-0.794,0.358-1.351,0.874-1.895c0.988-1.042,2.723-1.71,4.771-1.71c2.048,0,3.784,0.668,4.771,1.71
	c0.516,0.544,0.788,1.101,0.874,1.895C41.789,44.275,41.695,45.599,41.515,47.715z M27.397,42.6c0.207,0.194,0.317,0.47,0.302,0.752
	c-0.048,0.861-0.031,1.698,0.027,2.644c0.015,0.251-0.267,0.413-0.475,0.271c-4.143-2.829-6.849-7.612-6.78-13.011
	c0.105-8.208,6.688-14.972,14.894-15.29c8.829-0.342,16.122,6.739,16.122,15.492c0,5.315-2.69,10.014-6.78,12.808
	c-0.208,0.142-0.491-0.019-0.475-0.27c0.057-0.945,0.075-1.782,0.026-2.643c-0.016-0.283,0.095-0.559,0.302-0.753
	c2.439-2.289,3.965-5.54,3.965-9.141c0-7.08-5.899-12.809-13.042-12.533c-6.572,0.255-11.873,5.623-12.046,12.196
	C23.337,36.856,24.882,40.239,27.397,42.6z M41.365,31.57c0,2.975-2.412,5.386-5.388,5.386c-2.976,0-5.388-2.411-5.388-5.386
	s2.412-5.386,5.388-5.386C38.953,26.184,41.365,28.595,41.365,31.57z M43.639,55.296c-0.221,0.078-0.445-0.106-0.41-0.337
	c0.119-0.792,0.232-1.587,0.335-2.37c0.037-0.276,0.212-0.516,0.467-0.627c7.135-3.115,12.134-10.236,12.134-18.504
	c0-11.183-9.146-20.271-20.354-20.181c-10.963,0.089-19.915,9.023-20.021,19.983c-0.081,8.351,4.941,15.561,12.132,18.701
	c0.256,0.112,0.432,0.35,0.469,0.627c0.103,0.783,0.216,1.579,0.335,2.371c0.035,0.232-0.189,0.415-0.41,0.337
	c-9.098-3.199-15.613-11.927-15.487-22.13C12.985,20.57,23.31,10.351,35.91,10.316c12.796-0.036,23.217,10.359,23.217,23.143
	C59.127,43.536,52.65,52.128,43.639,55.296z"/>
</svg>
