<?xml version="1.0" encoding="UTF-8"?>
<svg id="Layer_2" data-name="Layer 2" xmlns="http://www.w3.org/2000/svg" viewBox="0 0 193.31 27.36">
  <defs>
    <style>
      .cls-1 {
        fill: #ff005e;
      }
    </style>
  </defs>
  <g id="Layer_1-2" data-name="Layer 1">
    <g>
      <polygon class="cls-1" points="3.11 27.36 0 27.36 0 0 3.11 0 3.11 1.69 1.69 1.69 1.69 25.67 3.11 25.67 3.11 27.36"/>
      <polygon class="cls-1" points="193.31 27.36 190.21 27.36 190.21 25.67 191.62 25.67 191.62 1.69 190.21 1.69 190.21 0 193.31 0 193.31 27.36"/>
      <path d="M7.62,13.08c0-.79.1-1.55.29-2.28s.51-1.44.96-2.13c.45-.69,1.11-1.25,2-1.68.88-.42,1.93-.63,3.14-.63.5,0,.93.01,1.28.04s.78.09,1.27.19.88.29,1.15.58c.27.29.41.64.41,1.08,0,.34-.1.62-.3.83s-.46.32-.79.32c-.72,0-1.09-.41-1.13-1.24-.62-.06-1.15-.08-1.6-.08-1.45,0-2.52.34-3.21,1.01-.89.86-1.33,2.15-1.34,3.85,0,.94.15,1.76.45,2.46.3.7.7,1.22,1.19,1.57.49.35.98.6,1.48.74s1.01.22,1.55.22c.61,0,1.09-.16,1.45-.48s.61-.67.78-1.06c.16-.39.27-.6.32-.63.07-.07.33-.11.79-.12.42,0,.63.12.63.37,0,.15-.08.4-.24.74-.16.35-.4.76-.72,1.22-.32.46-.81.86-1.47,1.19s-1.4.49-2.23.49c-1.81,0-3.28-.59-4.41-1.78-1.13-1.19-1.69-2.79-1.69-4.8Z"/>
      <path d="M19.58,13.15c0-2.05.57-3.68,1.7-4.9,1.13-1.22,2.64-1.83,4.52-1.83s3.34.62,4.48,1.84c1.15,1.23,1.72,2.85,1.72,4.87s-.57,3.61-1.71,4.78c-1.14,1.17-2.64,1.75-4.49,1.75s-3.35-.58-4.5-1.75c-1.15-1.17-1.72-2.75-1.72-4.75ZM21.71,12.83c0,3.41,1.35,5.11,4.06,5.11h.03c2.71,0,4.06-1.7,4.06-5.09,0-3.18-1.35-4.77-4.06-4.78-2.73,0-4.09,1.59-4.09,4.75Z"/>
      <path d="M32.82,19.66v-1.69h2.38v-8.67c0-.34-.1-.56-.3-.66-.2-.1-.75-.15-1.65-.15h-.43v-1.69l4.22-.39v1.91c1.11-1.27,2.52-1.91,4.22-1.91,1.93,0,3.14.68,3.63,2.05.76-.82,1.5-1.37,2.22-1.66.63-.26,1.31-.39,2.05-.39h.07c.71,0,1.31.09,1.8.27s.87.4,1.14.66c.27.26.47.59.61,1,.14.41.23.78.26,1.1s.06.72.06,1.17v7.36h2.37v1.69h-6.76v-1.69h2.4v-7.28c0-.36-.02-.66-.07-.9s-.15-.5-.31-.8-.45-.52-.86-.67c-.41-.15-.94-.22-1.59-.22-.95,0-1.71.34-2.28,1.02-.57.68-.86,1.6-.86,2.74v6.1h2.4v1.69h-6.76v-1.69h2.37v-7.28c0-.36-.03-.66-.08-.9-.05-.24-.16-.5-.31-.8-.16-.3-.44-.52-.84-.67-.4-.15-.93-.22-1.58-.22-.95,0-1.71.34-2.28,1.02-.57.68-.86,1.6-.86,2.74v6.1h2.38v1.69h-6.76Z"/>
      <path d="M56.71,19.66v-1.69h2.38v-8.67c0-.34-.1-.56-.3-.66-.2-.1-.75-.15-1.65-.15h-.43v-1.69l4.22-.39v1.91c1.11-1.27,2.52-1.91,4.22-1.91,1.93,0,3.14.68,3.63,2.05.76-.82,1.5-1.37,2.22-1.66.63-.26,1.31-.39,2.05-.39h.07c.71,0,1.31.09,1.8.27s.87.4,1.14.66c.27.26.47.59.61,1,.14.41.23.78.26,1.1.04.33.06.72.06,1.17v7.36h2.37v1.69h-6.76v-1.69h2.4v-7.28c0-.36-.02-.66-.07-.9s-.15-.5-.31-.8-.45-.52-.86-.67c-.41-.15-.94-.22-1.59-.22-.95,0-1.71.34-2.28,1.02-.57.68-.86,1.6-.86,2.74v6.1h2.4v1.69h-6.76v-1.69h2.37v-7.28c0-.36-.03-.66-.08-.9s-.16-.5-.31-.8c-.16-.3-.44-.52-.84-.67-.4-.15-.93-.22-1.58-.22-.95,0-1.71.34-2.28,1.02-.57.68-.86,1.6-.86,2.74v6.1h2.38v1.69h-6.76Z"/>
      <path d="M79.94,13.13c0-2.06.57-3.7,1.7-4.92,1.13-1.23,2.64-1.79,4.52-1.79s3.34.56,4.48,1.79c1.15,1.23,1.72,2.86,1.72,4.89s-.57,3.62-1.71,4.8c-1.14,1.17-2.64,1.76-4.49,1.76s-3.35-.59-4.5-1.76c-1.15-1.17-1.72-2.77-1.72-4.77ZM82.08,12.8c0,3.42,1.35,5.14,4.06,5.14h.03c2.71,0,4.06-1.7,4.06-5.11,0-3.19-1.35-4.79-4.06-4.8-2.73,0-4.09,1.6-4.09,4.77Z"/>
      <path d="M93.45,19.66v-1.69h2.38v-8.67c0-.34-.1-.56-.3-.66-.2-.1-.75-.15-1.65-.15h-.43v-1.69l4.22-.39v1.91c1.11-1.27,2.5-1.91,4.18-1.91.87,0,1.59.12,2.16.37.56.25.97.6,1.21,1.07s.39.89.46,1.28c.07.39.1.88.1,1.48v7.36h2.37v1.69h-6.73v-1.69h2.37v-7.28c0-.36-.03-.66-.08-.9s-.16-.5-.31-.8c-.16-.3-.44-.52-.84-.67-.4-.15-.93-.22-1.58-.22-.95,0-1.71.34-2.28,1.02-.57.68-.86,1.6-.86,2.74v6.1h2.38v1.69h-6.76Z"/>
      <path d="M117.64,23.28h2.37v-14.09c-.02-.32-.13-.52-.33-.6s-.71-.12-1.53-.12h-.52v-1.66l4.28-.38v1.57c1.46-1.03,3.18-1.54,5.17-1.54h.06c1.51,0,2.67.6,3.48,1.81.81,1.21,1.21,2.77,1.21,4.7,0,2.29-.54,3.97-1.61,5.04-1.07,1.07-2.33,1.6-3.77,1.6-1.65,0-3.14-.57-4.46-1.72v5.4h2.37v1.66h-6.73v-1.66ZM122,14.86c0,.69.34,1.38,1.03,2.06.69.68,1.52,1.02,2.51,1.02,1.12,0,2.1-.41,2.93-1.25s1.24-2.06,1.24-3.68-.38-2.86-1.15-3.66-1.69-1.19-2.78-1.19c-.89,0-1.74.25-2.56.74-.81.49-1.22,1.1-1.22,1.81v4.15Z"/>
      <path d="M133.53,19.66v-1.69h2.37v-8.67c0-.34-.1-.56-.3-.66s-.75-.15-1.64-.15h-.43v-1.69l4.14-.39v1.99c.98-1.31,2.15-1.97,3.48-1.97.59,0,1.07.16,1.46.47s.59.71.59,1.19c0,.33-.11.59-.33.79s-.48.31-.77.31c-.25,0-.49-.08-.73-.25s-.36-.45-.38-.85c-.98.17-1.77.69-2.34,1.56-.55.85-.83,2.02-.84,3.48v4.82h3v1.69h-7.28Z"/>
      <path d="M144.07,12.98c0-1.96.54-3.55,1.61-4.74,1.08-1.2,2.49-1.8,4.23-1.8.97,0,1.8.17,2.51.51.71.34,1.24.8,1.6,1.38.36.58.62,1.18.78,1.8.15.62.23,1.27.23,1.93,0,.3-.07.49-.2.58s-.32.12-.57.12h-8.07c0,1,.14,1.85.41,2.55.28.7.65,1.24,1.13,1.6.48.36.98.62,1.51.78.52.16,1.09.24,1.7.24,1.11,0,1.89-.62,2.35-1.85.11-.25.22-.41.31-.48s.29-.11.56-.11h.13c.47,0,.71.17.71.51,0,.64-.45,1.41-1.36,2.3-.91.9-2.04,1.34-3.41,1.34-1.74,0-3.21-.58-4.39-1.75-1.18-1.17-1.77-2.81-1.77-4.92ZM146.37,11.24h6.95c-.31-2.09-1.43-3.14-3.38-3.14s-3.14,1.05-3.57,3.14Z"/>
      <path d="M182.3,17.95l-3.68-5.1v-.05c1.99-2.82,3.03-4.28,3.12-4.39.14-.17.33-.26.56-.28h2.15v-1.71h-5.91v1.71h1.41l-2.29,3.31h-.03l-2.4-3.31h1.37v-1.71h-5.91v1.71h2.59l3.37,4.7-3.57,5.12h-2.56v1.71h5.88v-1.71h-1.38l2.63-3.77,2.7,3.77h-1.37v1.71h5.91v-1.71h-2.61Z"/>
      <path d="M158.52,8.52h-1.9s.09-1.64.09-1.64l1.81-.22c0-1.75,0-3.72,1.28-4.98,1.21-1.19,5.11-2.22,6.5-1.39,1.12.67,1.53,3.6-.29,3.57-1.34-.02-.65-1.8-1.31-2.05-3.19-.3-4.81,1.2-4.29,4.84l6.96-.23v11.54h2.11s0,1.69,0,1.69h-5.9v-1.69s2.11,0,2.11,0v-9.1l-.32-.35h-4.95v9.45s2.11,0,2.11,0v1.69h-5.9v-1.69s1.9,0,1.9,0v-9.45Z"/>
    </g>
  </g>
</svg>