<svg fill="none" xmlns="http://www.w3.org/2000/svg" viewBox="0 0 220 17"><g clip-path="url(#a)" fill="#424241"><path d="M0 3.357c0-.094.03-.163.088-.205a.282.282 0 0 1 .162-.064c.1 0 .175.06.225.18.05.119.233.601.55 1.447l.55 1.485h3.8l.538-1.473c.084-.23.171-.47.263-.717.092-.248.167-.444.225-.59l.088-.217c.041-.077.12-.115.237-.115.15.017.225.102.225.256 0 .034-.542 1.507-1.625 4.42-1.084 2.911-1.638 4.38-1.663 4.406-.042.06-.104.09-.187.09-.084 0-.146-.03-.188-.09-.025-.034-.575-1.5-1.65-4.394A1305.852 1305.852 0 0 1 0 3.356Zm5.176 3.369c0-.009-.567-.013-1.7-.013-1.134 0-1.7.004-1.7.013l1.7 4.547 1.7-4.547ZM10.54 3.933c0-.06-.238-.098-.713-.115-.2 0-.33-.004-.388-.013-.058-.008-.087-.051-.087-.128 0-.009.008-.055.025-.14.05-.172.087-.266.112-.283.025-.017.834-.025 2.425-.025 1.584.008 2.43.021 2.538.038.534.094.98.303 1.338.628.358.324.542.756.55 1.294 0 .657-.275 1.26-.825 1.806-.575.58-1.317.948-2.225 1.101-.059.009-.496.017-1.313.026h-1.188l-.375 1.524c-.25.99-.375 1.516-.375 1.576 0 .034.004.055.013.064a.394.394 0 0 0 .3.077c.091-.009.229 0 .412.025h.388c.05.077.075.124.075.141 0 .137-.03.265-.088.385-.041.042-.108.063-.2.063l-.462-.012c-.284-.009-.7-.013-1.25-.013H8.039c-.275 0-.425.004-.45.013-.15 0-.225-.043-.225-.128 0-.017.012-.077.037-.18.034-.136.067-.213.1-.23.034-.017.13-.03.288-.039.225 0 .475-.012.75-.038.117-.026.196-.077.237-.154.026-.034.326-1.221.9-3.56.576-2.34.863-3.575.863-3.703Zm4.475.948c0-.11-.008-.2-.025-.269a1.529 1.529 0 0 0-.113-.282.61.61 0 0 0-.312-.281 3.994 3.994 0 0 0-.613-.205 19.654 19.654 0 0 0-1-.026h-.437c-.15 0-.271.004-.363.013-.092.008-.142.008-.15 0-.108.008-.183.047-.225.115-.017.051-.096.38-.238.986a67.948 67.948 0 0 1-.437 1.768c-.15.572-.225.863-.225.871 0 .017.337.026 1.012.026H12.328c.934 0 1.6-.214 2-.64.225-.231.396-.569.513-1.013.117-.444.175-.798.175-1.063ZM16.86 8.664l-.115.046c-.082.03-.2.06-.354.09-.153.03-.324.052-.512.064h-.168v-.417h.168c.277-.012.533-.057.769-.136.236-.078.4-.15.495-.217.094-.067.177-.133.247-.2.012-.017.047-.027.106-.027.053 0 .104.019.15.055v2.708l.01 2.716a.35.35 0 0 0 .106.082c.029.012.1.024.212.036.112.012.294.018.548.018h.23v.417h-.098c-.123-.018-.592-.027-1.405-.027-.801 0-1.264.009-1.388.027h-.106v-.417H16.321c.094 0 .168-.003.22-.009a.85.85 0 0 0 .142-.027.515.515 0 0 1 .07-.018c.007 0 .024-.015.054-.045s.047-.042.053-.036V8.664ZM20.998 11.53v-.32c0-.214.067-.398.2-.552a.676.676 0 0 1 .538-.23c.233 0 .442.106.625.32.184.213.28.59.288 1.127 0 .3-.038.59-.113.871a4.04 4.04 0 0 1-.262.73c-.1.205-.209.38-.325.526-.117.145-.217.26-.3.345-.084.086-.138.124-.163.116-.033 0-.087-.039-.162-.116-.075-.076-.113-.132-.113-.166s.046-.103.138-.205c.091-.103.195-.23.312-.384a2.48 2.48 0 0 0 .325-.64c.1-.274.167-.586.2-.936v-.154l-.012.013a.475.475 0 0 1-.063.026.318.318 0 0 0-.075.038.2.2 0 0 1-.112.026c-.05 0-.1.004-.15.013a.735.735 0 0 1-.55-.218l-.226-.23ZM29.17 3.933c0-.06-.238-.098-.713-.115-.2 0-.33-.004-.387-.013-.059-.008-.088-.051-.088-.128 0-.009.008-.055.025-.14.05-.172.087-.266.112-.283.026-.017.834-.025 2.426-.025 1.583.008 2.43.021 2.538.038.533.094.98.303 1.337.628.359.324.542.756.55 1.294 0 .657-.274 1.26-.825 1.806-.575.58-1.316.948-2.225 1.101-.058.009-.496.017-1.313.026H29.42l-.375 1.524c-.25.99-.375 1.516-.375 1.576 0 .034.004.055.012.064a.394.394 0 0 0 .3.077c.092-.009.23 0 .413.025h.387c.05.077.075.124.075.141 0 .137-.029.265-.087.385-.042.042-.109.063-.2.063l-.463-.012c-.283-.009-.7-.013-1.25-.013h-1.188c-.275 0-.425.004-.45.013-.15 0-.225-.043-.225-.128 0-.017.013-.077.038-.18.033-.136.066-.213.1-.23.033-.017.129-.03.287-.039.225 0 .475-.012.75-.038.117-.026.196-.077.238-.154.025-.034.325-1.221.9-3.56.575-2.34.863-3.575.863-3.703Zm4.475.948c0-.11-.008-.2-.025-.269a1.523 1.523 0 0 0-.112-.282.61.61 0 0 0-.313-.281 3.994 3.994 0 0 0-.612-.205 19.661 19.661 0 0 0-1-.026h-.438c-.15 0-.27.004-.363.013-.091.008-.141.008-.15 0-.108.008-.183.047-.225.115-.016.051-.096.38-.237.986a67.54 67.54 0 0 1-.438 1.768c-.15.572-.225.863-.225.871 0 .017.338.026 1.013.026H30.957c.934 0 1.6-.214 2-.64.226-.231.397-.569.513-1.013.117-.444.175-.798.175-1.063ZM34.571 10.014a.478.478 0 0 1-.38-.163.587.587 0 0 1-.141-.399c0-.428.156-.8.468-1.114a1.58 1.58 0 0 1 1.167-.47c.536 0 .984.169 1.343.507.36.338.543.775.549 1.313 0 .26-.06.507-.177.742-.118.236-.26.441-.425.616-.165.175-.4.399-.707.67-.212.188-.506.465-.883.834l-.522.507.672.009c.925 0 1.417-.015 1.476-.046.041-.012.112-.28.212-.806v-.027h.354v.027c-.006.019-.045.293-.115.825-.071.53-.115.809-.133.833v.027h-3.28V13.618c0-.042.019-.087.054-.136a6.82 6.82 0 0 1 .265-.317 38.934 38.934 0 0 1 .742-.842c.148-.163.248-.275.301-.335.053-.06.139-.16.256-.299.118-.139.2-.241.248-.308a9.29 9.29 0 0 1 .203-.271c.088-.115.15-.212.186-.29.035-.079.08-.166.132-.263a1.19 1.19 0 0 0 .115-.29c.024-.096.044-.187.062-.271.018-.085.027-.184.027-.3 0-.38-.1-.709-.3-.986-.201-.278-.487-.417-.858-.417a.874.874 0 0 0-.513.154c-.147.103-.25.202-.31.299a.653.653 0 0 0-.088.172c0 .006.015.009.044.009.107 0 .216.042.328.127.111.084.168.223.168.416 0 .151-.048.278-.142.38a.54.54 0 0 1-.398.164ZM39.629 11.53v-.32c0-.214.067-.398.2-.552a.676.676 0 0 1 .538-.23c.233 0 .441.106.625.32.183.213.279.59.287 1.127 0 .3-.037.59-.112.871a4.055 4.055 0 0 1-.263.73c-.1.205-.208.38-.325.526-.117.145-.217.26-.3.345-.083.086-.138.124-.163.116-.033 0-.087-.039-.162-.116-.075-.076-.113-.132-.113-.166s.046-.103.138-.205c.092-.103.196-.23.313-.384.116-.154.224-.367.325-.64.1-.274.166-.586.2-.936v-.154l-.013.013a.48.48 0 0 1-.062.026.318.318 0 0 0-.075.038.2.2 0 0 1-.113.026c-.05 0-.1.004-.15.013a.735.735 0 0 1-.55-.218l-.225-.23ZM44.475 8.301A.904.904 0 0 0 44.5 8.2c.008-.043.029-.137.062-.282.034-.145.075-.277.125-.397s.113-.26.188-.423c.075-.162.158-.29.25-.384.091-.094.2-.188.325-.282a.56.56 0 0 1 .412-.115c.242 0 .455.051.638.154.183.102.313.196.388.282.075.085.12.17.137.256.017.05.03.077.038.077a.44.44 0 0 0 .1-.09c.4-.444.862-.666 1.387-.666h.038c.4 0 .7.175.9.525.067.162.1.32.1.474 0 .256-.054.461-.163.615-.108.154-.216.252-.325.294a.687.687 0 0 1-.312.052.56.56 0 0 1-.4-.141.486.486 0 0 1-.15-.372c0-.41.233-.683.7-.82-.184-.11-.334-.166-.45-.166-.467 0-.896.316-1.288.948a1.726 1.726 0 0 0-.188.423c-.041.145-.183.713-.425 1.703-.283 1.196-.446 1.832-.487 1.909a.554.554 0 0 1-.538.346.42.42 0 0 1-.262-.077.459.459 0 0 1-.138-.154c-.025-.051-.033-.094-.025-.128 0-.111.167-.845.5-2.203.334-1.358.5-2.114.5-2.268 0-.333-.108-.5-.325-.5-.175 0-.325.12-.45.36-.125.239-.225.5-.3.781-.075.282-.12.435-.137.461-.017.017-.084.026-.2.026h-.175c-.05-.052-.075-.09-.075-.116ZM51.733 8.664l-.115.046c-.082.03-.2.06-.353.09-.154.03-.325.052-.513.064h-.168v-.417h.168c.277-.012.533-.057.769-.136.236-.078.4-.15.495-.217.094-.067.177-.133.247-.2.012-.017.047-.027.106-.027.053 0 .104.019.15.055v2.708l.01 2.716a.35.35 0 0 0 .106.082c.03.012.1.024.212.036.112.012.294.018.548.018h.23v.417h-.098c-.123-.018-.592-.027-1.405-.027-.801 0-1.264.009-1.388.027h-.106v-.417H51.194c.094 0 .168-.003.22-.009a.851.851 0 0 0 .142-.027.512.512 0 0 1 .071-.018c.006 0 .023-.015.053-.045s.047-.042.053-.036V8.664ZM55.872 11.53v-.32c0-.214.066-.398.2-.552a.676.676 0 0 1 .537-.23c.234 0 .442.106.625.32.184.213.28.59.288 1.127 0 .3-.038.59-.113.871a4.048 4.048 0 0 1-.262.73c-.1.205-.209.38-.325.526a4.97 4.97 0 0 1-.3.345c-.084.086-.138.124-.163.116-.033 0-.087-.039-.162-.116-.075-.076-.113-.132-.113-.166s.046-.103.138-.205c.091-.103.195-.23.312-.384a2.48 2.48 0 0 0 .325-.64c.1-.274.167-.586.2-.936v-.154l-.012.013a.48.48 0 0 1-.063.026.32.32 0 0 0-.075.038.2.2 0 0 1-.112.026c-.05 0-.1.004-.15.013a.735.735 0 0 1-.55-.218l-.225-.23ZM60.718 8.301a.926.926 0 0 0 .025-.102l.063-.282c.033-.145.075-.277.125-.397s.112-.26.187-.423c.075-.162.159-.29.25-.384.092-.094.2-.188.325-.282a.56.56 0 0 1 .413-.115c.242 0 .454.051.638.154.183.102.312.196.387.282.075.085.121.17.138.256.016.05.029.077.037.077.009 0 .042-.03.1-.09.4-.444.863-.666 1.388-.666h.037c.4 0 .7.175.9.525.067.162.1.32.1.474 0 .256-.054.461-.162.615-.108.154-.217.252-.325.294a.688.688 0 0 1-.313.052.56.56 0 0 1-.4-.141.486.486 0 0 1-.15-.372c0-.41.234-.683.7-.82-.183-.11-.333-.166-.45-.166-.466 0-.896.316-1.287.948a1.718 1.718 0 0 0-.188.423c-.041.145-.183.713-.425 1.703-.283 1.196-.446 1.832-.488 1.909a.554.554 0 0 1-.537.346.42.42 0 0 1-.263-.077.457.457 0 0 1-.137-.154c-.025-.051-.033-.094-.025-.128 0-.111.167-.845.5-2.203.333-1.358.5-2.114.5-2.268 0-.333-.108-.5-.325-.5-.175 0-.325.12-.45.36-.125.239-.225.5-.3.781-.075.282-.121.435-.138.461-.016.017-.083.026-.2.026h-.175c-.05-.052-.075-.09-.075-.116ZM67.058 10.014a.477.477 0 0 1-.38-.163.587.587 0 0 1-.142-.399c0-.428.156-.8.469-1.114a1.58 1.58 0 0 1 1.166-.47c.537 0 .984.169 1.344.507.36.338.542.775.548 1.313 0 .26-.06.507-.177.742-.118.236-.26.441-.424.616-.165.175-.4.399-.707.67-.212.188-.507.465-.884.834l-.522.507.672.009c.925 0 1.417-.015 1.476-.046.041-.012.112-.28.212-.806v-.027h.354v.027c-.006.019-.044.293-.115.825-.07.53-.115.809-.133.833v.027h-3.279V13.618c0-.042.018-.087.053-.136.035-.048.124-.154.265-.317.171-.193.319-.362.442-.507l.3-.335c.148-.163.248-.275.301-.335.053-.06.139-.16.257-.299.118-.139.2-.241.247-.308a9.29 9.29 0 0 1 .203-.271c.089-.115.15-.212.186-.29.035-.079.08-.166.133-.263.053-.096.091-.193.114-.29.024-.096.045-.187.062-.271.018-.085.027-.184.027-.3 0-.38-.1-.709-.3-.986-.2-.278-.487-.417-.858-.417a.874.874 0 0 0-.513.154c-.147.103-.25.202-.309.299a.653.653 0 0 0-.088.172c0 .006.014.009.044.009.106 0 .215.042.327.127.112.084.168.223.168.416 0 .151-.047.278-.142.38a.54.54 0 0 1-.397.164ZM75.587 7.238a.77.77 0 0 1 .212-.538.7.7 0 0 1 .538-.23.755.755 0 0 1 .763.755c0 .214-.071.397-.213.551a.7.7 0 0 1-.537.23.72.72 0 0 1-.538-.217.802.802 0 0 1-.225-.55Zm0 3.971a.77.77 0 0 1 .212-.538.7.7 0 0 1 .538-.23.755.755 0 0 1 .763.755c0 .214-.071.397-.213.551a.7.7 0 0 1-.537.23.72.72 0 0 1-.538-.217.802.802 0 0 1-.225-.551ZM81.823 8.301a.883.883 0 0 0 .025-.102l.063-.282c.033-.145.075-.277.125-.397s.112-.26.187-.423a1.37 1.37 0 0 1 .25-.384c.092-.094.2-.188.325-.282a.56.56 0 0 1 .413-.115c.242 0 .454.051.638.154.183.102.312.196.387.282.075.085.121.17.138.256.016.05.029.077.037.077.008 0 .042-.03.1-.09.4-.444.863-.666 1.388-.666h.037c.4 0 .7.175.9.525.067.162.1.32.1.474 0 .256-.054.461-.162.615-.108.154-.217.252-.325.294a.688.688 0 0 1-.313.052.56.56 0 0 1-.4-.141.486.486 0 0 1-.15-.372c0-.41.234-.683.7-.82-.183-.11-.333-.166-.45-.166-.466 0-.896.316-1.287.948a1.722 1.722 0 0 0-.188.423c-.041.145-.183.713-.425 1.703-.283 1.196-.446 1.832-.488 1.909a.554.554 0 0 1-.537.346.42.42 0 0 1-.263-.077.457.457 0 0 1-.137-.154c-.025-.051-.033-.094-.025-.128 0-.111.166-.845.5-2.203.333-1.358.5-2.114.5-2.268 0-.333-.108-.5-.325-.5-.175 0-.325.12-.45.36-.125.239-.225.5-.3.781-.075.282-.121.435-.138.461-.016.017-.083.026-.2.026h-.175c-.05-.052-.075-.09-.075-.116ZM89.082 8.664l-.115.046c-.083.03-.2.06-.354.09-.153.03-.324.052-.512.064h-.168v-.417h.168c.276-.012.533-.057.769-.136.235-.078.4-.15.495-.217.094-.067.176-.133.247-.2.012-.017.047-.027.106-.027.053 0 .103.019.15.055v2.708l.01 2.716a.35.35 0 0 0 .105.082c.03.012.1.024.212.036.112.012.295.018.548.018h.23v.417h-.097c-.124-.018-.592-.027-1.405-.027-.802 0-1.264.009-1.388.027h-.106v-.417H88.543c.094 0 .167-.003.22-.009a.852.852 0 0 0 .142-.027.512.512 0 0 1 .07-.018c.007 0 .024-.015.054-.045s.047-.042.053-.036V8.664ZM104.143 3.83c.066 0 .125.026.175.077.05.052.075.116.075.193a.21.21 0 0 1-.088.179c-.008.008-1.133.56-3.375 1.652l-3.326 1.614 3.101 1.512c2.4 1.161 3.617 1.763 3.65 1.806a.326.326 0 0 1 .038.14c0 .155-.075.24-.225.257h-.075l-3.601-1.742c-2.417-1.17-3.634-1.763-3.65-1.78-.059-.043-.088-.116-.088-.218.008-.094.062-.167.162-.218.067-.034 1.259-.61 3.576-1.73a413.458 413.458 0 0 0 3.538-1.716.243.243 0 0 1 .113-.025Zm-7.377 9.659c0-.086.063-.17.188-.256h7.239c.133.051.2.136.2.256 0 .102-.063.188-.188.256h-7.264c-.116-.06-.175-.145-.175-.256ZM109.179 8.301c.008-.025.016-.06.025-.102.008-.043.029-.137.062-.282.034-.145.075-.277.125-.397s.113-.26.188-.423c.075-.162.158-.29.25-.384.091-.094.2-.188.325-.282a.558.558 0 0 1 .412-.115c.242 0 .455.051.638.154.183.102.313.196.388.282.075.085.12.17.137.256.017.05.029.077.038.077.008 0 .041-.03.1-.09.4-.444.862-.666 1.387-.666h.038c.4 0 .7.175.9.525.067.162.1.32.1.474 0 .256-.054.461-.163.615-.108.154-.216.252-.325.294a.685.685 0 0 1-.312.052.56.56 0 0 1-.4-.141.486.486 0 0 1-.15-.372c0-.41.233-.683.7-.82-.183-.11-.333-.166-.45-.166-.467 0-.896.316-1.288.948a1.709 1.709 0 0 0-.187.423c-.042.145-.184.713-.425 1.703-.284 1.196-.446 1.832-.488 1.909a.554.554 0 0 1-.538.346.42.42 0 0 1-.262-.077.456.456 0 0 1-.138-.154c-.025-.051-.033-.094-.025-.128 0-.111.167-.845.5-2.203.334-1.358.5-2.114.5-2.268 0-.333-.108-.5-.325-.5-.175 0-.325.12-.45.36-.125.239-.225.5-.3.781a3.92 3.92 0 0 1-.137.461c-.017.017-.084.026-.2.026h-.175c-.05-.052-.075-.09-.075-.116ZM115.518 10.014a.477.477 0 0 1-.38-.163.588.588 0 0 1-.141-.399c0-.428.156-.8.468-1.114.312-.314.701-.47 1.167-.47.536 0 .984.169 1.343.507.36.338.542.775.548 1.313 0 .26-.059.507-.176.742-.118.236-.26.441-.425.616-.165.175-.4.399-.707.67-.212.188-.507.465-.884.834l-.521.507.672.009c.925 0 1.417-.015 1.476-.046.041-.012.112-.28.212-.806v-.027h.353v.027c-.006.019-.044.293-.115.825-.07.53-.115.809-.132.833v.027h-3.279V13.618a.23.23 0 0 1 .053-.136 6.15 6.15 0 0 1 .265-.317c.171-.193.318-.362.442-.507l.3-.335c.148-.163.248-.275.301-.335.053-.06.138-.16.256-.299.118-.139.2-.241.248-.308.047-.066.114-.157.203-.271a1.61 1.61 0 0 0 .186-.29c.035-.079.079-.166.132-.263.053-.096.091-.193.115-.29.024-.096.044-.187.062-.271.018-.085.026-.184.026-.3 0-.38-.1-.709-.3-.986-.2-.278-.486-.417-.858-.417a.873.873 0 0 0-.512.154 1.085 1.085 0 0 0-.31.299.677.677 0 0 0-.088.172c0 .006.015.009.044.009.106 0 .215.042.327.127.112.084.168.223.168.416 0 .151-.047.278-.141.38a.54.54 0 0 1-.398.164ZM130.323 5.394c0-.094.067-.141.2-.141h.163c.016 0 .033.004.05.013a.662.662 0 0 0 .025.012l.025.039.025.038.037.064a5.868 5.868 0 0 0 1.225 1.678c.509.487.971.833 1.388 1.038.417.205.817.363 1.2.474.142.043.213.098.213.166 0 .069-.038.116-.113.141-.075.026-.229.073-.462.141-.234.069-.475.171-.725.308-1.201.597-2.109 1.52-2.726 2.766-.033.077-.062.12-.087.128a1.082 1.082 0 0 1-.188.026c-.167 0-.25-.03-.25-.09 0-.034.021-.106.063-.217.291-.59.65-1.115 1.075-1.576l.125-.128h-7.639c-.117-.06-.175-.145-.175-.256 0-.128.067-.214.2-.256h8.164l.125-.103c.325-.256.812-.55 1.463-.884a2.487 2.487 0 0 0-.225-.115 8.246 8.246 0 0 1-.563-.307 5.991 5.991 0 0 1-.675-.461l-.125-.103h-8.164c-.133-.043-.2-.128-.2-.256 0-.111.058-.197.175-.256h7.639l-.125-.128a6.708 6.708 0 0 1-.775-1.038c-.242-.393-.363-.632-.363-.717ZM139.672 8.75c0-.983.28-1.926.838-2.831a6.516 6.516 0 0 1 2.113-2.152c.85-.53 1.7-.799 2.55-.807.75 0 1.346.217 1.788.653.075.085.138.158.188.218.05.06.083.102.1.128l.012.038c.025 0 .138-.11.338-.333.058-.051.12-.11.187-.18l.2-.204c.067-.068.109-.115.125-.141l.188-.192h.075c.116 0 .175.03.175.09 0 .034-.134.619-.4 1.754-.3 1.187-.45 1.785-.45 1.794-.017.042-.038.068-.063.077a1.35 1.35 0 0 1-.225.025h-.2c-.05-.051-.075-.09-.075-.115a3.762 3.762 0 0 0 .038-.346c.008-.12.012-.256.012-.41 0-.606-.133-1.136-.4-1.588-.267-.453-.721-.683-1.363-.692-.216 0-.45.03-.7.09-.25.06-.55.162-.9.307s-.696.384-1.038.717c-.341.334-.646.73-.912 1.192a6.954 6.954 0 0 0-.638 1.703c-.158.65-.237 1.179-.237 1.589 0 .973.316 1.673.95 2.1.4.29.892.436 1.475.436.758 0 1.434-.29 2.025-.871.592-.58.984-1.213 1.175-1.896a.724.724 0 0 1 .075-.192c.017-.017.084-.026.201-.026.166 0 .25.039.25.116a.504.504 0 0 1-.013.115c-.242.914-.758 1.7-1.55 2.357-.792.658-1.642.986-2.551.986-.941 0-1.737-.32-2.387-.96-.651-.64-.976-1.49-.976-2.55ZM150.523 1c0-.042-.168-.07-.504-.081-.141 0-.233-.003-.274-.01-.041-.005-.062-.036-.062-.09 0-.006.006-.04.018-.1.035-.12.062-.187.079-.199.018-.012.59-.018 1.715-.018 1.12.006 1.718.015 1.794.027.378.067.693.215.946.444.254.23.383.534.389.915 0 .465-.194.89-.583 1.277-.407.41-.931.67-1.574.778-.041.006-.35.013-.928.019h-.839l-.265 1.077c-.177.7-.266 1.072-.266 1.114 0 .024.003.04.009.045a.367.367 0 0 0 .062.037c.035.018.086.024.15.018.065-.006.162 0 .292.018h.274a.338.338 0 0 1 .053.1.615.615 0 0 1-.062.271c-.029.03-.076.045-.141.045l-.327-.009a31.92 31.92 0 0 0-.884-.009h-.84c-.194 0-.3.003-.318.01-.106 0-.159-.03-.159-.091 0-.012.009-.054.026-.127.024-.097.047-.15.071-.163a.717.717 0 0 1 .203-.027c.159 0 .336-.01.531-.027.082-.018.138-.055.168-.109.017-.024.229-.863.636-2.518.407-1.654.61-2.526.61-2.617Zm3.164.67a.882.882 0 0 0-.017-.19 1.12 1.12 0 0 0-.08-.2.43.43 0 0 0-.221-.198 2.808 2.808 0 0 0-.433-.145 13.892 13.892 0 0 0-.707-.018h-.31c-.106 0-.191.003-.256.009-.065.006-.1.006-.106 0-.077.006-.13.033-.159.081-.012.036-.068.269-.168.698-.1.428-.203.845-.309 1.25-.106.404-.159.61-.159.615 0 .012.238.018.716.018h.309c.66 0 1.131-.15 1.414-.453.159-.163.28-.401.362-.715.083-.314.124-.565.124-.752ZM154.992 4.345l-.082.032a1.72 1.72 0 0 1-.25.064 2.808 2.808 0 0 1-.362.045h-.119v-.295h.119a1.992 1.992 0 0 0 .894-.25c.066-.046.125-.093.175-.14.008-.013.033-.02.075-.02.037 0 .072.013.106.04v1.913l.006 1.921c.029.03.054.05.075.058a.73.73 0 0 0 .15.026c.079.008.208.012.387.012h.163v.295h-.069c-.087-.013-.419-.02-.993-.02-.567 0-.894.007-.982.02h-.075V7.75h.4c.067 0 .119-.002.157-.006a.627.627 0 0 0 .1-.02.332.332 0 0 1 .05-.012c.004 0 .016-.01.037-.032.021-.021.033-.03.038-.026v-3.31ZM148.172 12.542a.627.627 0 0 0 .018-.072c.005-.03.02-.097.044-.2a1.71 1.71 0 0 1 .088-.28 8.51 8.51 0 0 1 .133-.299.983.983 0 0 1 .176-.272c.065-.066.142-.132.23-.199a.398.398 0 0 1 .292-.081.91.91 0 0 1 .451.108c.129.073.221.14.274.2.053.06.085.12.097.18.012.037.021.055.027.055a.337.337 0 0 0 .07-.063c.283-.314.61-.471.981-.471h.027c.283 0 .495.124.636.371a.882.882 0 0 1 .071.335.738.738 0 0 1-.115.435.555.555 0 0 1-.23.208.485.485 0 0 1-.221.036.397.397 0 0 1-.283-.1.346.346 0 0 1-.106-.262c0-.29.165-.483.495-.58-.129-.078-.235-.117-.318-.117-.33 0-.633.223-.91.67a1.238 1.238 0 0 0-.133.299 66.71 66.71 0 0 0-.3 1.204c-.201.846-.316 1.295-.345 1.35a.392.392 0 0 1-.38.244.297.297 0 0 1-.186-.054.329.329 0 0 1-.097-.109c-.018-.036-.024-.066-.018-.09 0-.079.118-.598.354-1.558.236-.96.353-1.494.353-1.603 0-.236-.076-.353-.229-.353-.124 0-.23.084-.319.253a2.69 2.69 0 0 0-.212.553c-.053.2-.085.308-.097.326-.012.012-.059.018-.141.018h-.124c-.035-.036-.053-.063-.053-.082ZM153.304 12.8l-.082.031a1.708 1.708 0 0 1-.25.064 2.807 2.807 0 0 1-.362.045h-.119v-.294h.119a1.99 1.99 0 0 0 .894-.25c.066-.047.125-.094.175-.141.008-.013.033-.02.075-.02.037 0 .072.014.106.04v1.914l.006 1.92c.029.03.054.05.075.058a.738.738 0 0 0 .15.026c.079.008.208.012.387.012h.163v.295h-.069c-.087-.013-.419-.02-.993-.02-.567 0-.894.007-.982.02h-.075v-.294h.4c.067 0 .119-.003.157-.007a.635.635 0 0 0 .1-.02.323.323 0 0 1 .05-.012c.004 0 .016-.01.037-.032.021-.021.033-.03.038-.026V12.8ZM159.329 15.18V2.37h1.713v.513h-1.213v11.785h1.213v.512h-1.713ZM162.305 7.238c0-.205.071-.384.212-.538a.7.7 0 0 1 .538-.23.755.755 0 0 1 .762.755c0 .214-.07.397-.212.551a.7.7 0 0 1-.538.23.718.718 0 0 1-.537-.217.799.799 0 0 1-.225-.55Zm0 3.971c0-.205.071-.384.212-.538a.7.7 0 0 1 .538-.23.755.755 0 0 1 .762.755c0 .214-.07.397-.212.551a.7.7 0 0 1-.538.23.718.718 0 0 1-.537-.217.799.799 0 0 1-.225-.551ZM165.855 8.942v-.166c0-.111.058-.197.175-.257h7.264c.125.069.187.154.187.257 0 .102-.062.187-.187.256h-7.264c-.117-.06-.175-.145-.175-.256v.166ZM176.044 3.69c0-.085.017-.184.05-.295.033-.11.083-.166.15-.166l.9-.064c.592-.043.896-.068.913-.077.1 0 .15.034.15.102 0 .06-.209.953-.625 2.678-.417 1.69-.625 2.566-.625 2.626.158-.086.279-.167.362-.244.2-.153.488-.423.863-.807.375-.384.667-.645.875-.781.333-.23.65-.346.95-.346.25 0 .446.081.588.243.141.163.216.393.225.692 0 .214-.029.393-.088.538a.678.678 0 0 1-.237.32c-.1.069-.188.116-.263.141a.692.692 0 0 1-.225.039.56.56 0 0 1-.4-.141.486.486 0 0 1-.15-.372c0-.213.067-.388.2-.525s.267-.226.4-.269l.2-.038c-.1-.103-.2-.154-.3-.154h-.05a1.598 1.598 0 0 0-.788.32 7.569 7.569 0 0 0-.912.82c-.35.359-.625.62-.825.781.016.009.079.022.187.039.109.017.209.042.3.077.092.034.2.068.325.102a.867.867 0 0 1 .338.18c.1.085.192.162.275.23a.78.78 0 0 1 .212.333.991.991 0 0 1 .075.423c0 .145-.02.32-.062.525a3.726 3.726 0 0 0-.075.512c0 .342.112.513.338.513.4 0 .725-.508.975-1.525.016-.068.1-.102.25-.102h.05c.133 0 .2.038.2.115a.631.631 0 0 1-.038.18c-.341 1.204-.833 1.806-1.475 1.806-.375 0-.679-.111-.913-.333-.233-.222-.35-.543-.35-.961 0-.154.013-.286.038-.397.025-.111.037-.214.037-.308a.724.724 0 0 0-.175-.486.975.975 0 0 0-.437-.295c-.175-.06-.317-.107-.425-.14a.54.54 0 0 0-.225-.04h-.025c-.1.36-.188.705-.263 1.038a26.8 26.8 0 0 1-.175.743c-.042.162-.079.32-.112.474a1.653 1.653 0 0 1-.088.308 2.996 2.996 0 0 1-.088.166.228.228 0 0 1-.137.115.593.593 0 0 1-.35.116c-.142 0-.25-.043-.325-.128-.075-.086-.113-.158-.113-.218 0-.086.155-.769.463-2.05.308-1.28.613-2.54.913-3.778l.462-1.858c.008-.11-.021-.18-.087-.205-.067-.025-.23-.047-.488-.064h-.225c-.025 0-.054-.013-.088-.038-.033-.026-.045-.056-.037-.09ZM181.32 2.883v-.512h1.713v12.81h-1.713v-.513h1.213V2.883h-1.213ZM189.044 7.545c0-.11.029-.183.087-.217.059-.035.167-.052.326-.052h.112c.05 0 .096.005.138.013 2.092-.034 3.654-.307 4.688-.82 1.033-.512 1.621-1.276 1.763-2.293.033-.23.129-.345.287-.345.075.008.129.038.163.09a.407.407 0 0 1 .062.14v.077a3.631 3.631 0 0 1-.275 1.076 2.54 2.54 0 0 1-.575.833c-.242.23-.479.427-.713.589a3.925 3.925 0 0 1-.862.435 8.457 8.457 0 0 1-.813.27c-.2.05-.458.119-.775.204a17.46 17.46 0 0 1 .838.205 9.787 9.787 0 0 1 1.162.436c.492.256.896.568 1.213.935.317.367.529.7.638 1 .108.298.162.584.162.857 0 .18-.083.27-.25.27-.1 0-.171-.043-.212-.129a.723.723 0 0 1-.063-.32c0-.128-.05-.312-.15-.55-.1-.24-.242-.48-.425-.718-.883-1.102-2.838-1.678-5.863-1.73h-.288c-.083 0-.15-.004-.2-.012a.22.22 0 0 1-.125-.064c-.033-.034-.05-.094-.05-.18Zm0 6.11v-.166c0-.111.058-.197.175-.256h7.264c.125.068.187.153.187.256 0 .102-.062.188-.187.256h-7.264c-.117-.06-.175-.145-.175-.256v.166ZM201.818 8.75c0-.983.28-1.926.838-2.831a6.516 6.516 0 0 1 2.113-2.152c.85-.53 1.7-.799 2.55-.807.75 0 1.346.217 1.788.653.075.085.138.158.188.218.05.06.083.102.1.128l.012.038c.025 0 .138-.11.338-.333.058-.051.12-.11.187-.18l.2-.204c.067-.068.109-.115.125-.141l.188-.192h.075c.116 0 .175.03.175.09 0 .034-.134.619-.4 1.754-.3 1.187-.45 1.785-.45 1.794-.017.042-.038.068-.063.077a1.35 1.35 0 0 1-.225.025h-.2c-.05-.051-.075-.09-.075-.115a3.762 3.762 0 0 0 .038-.346c.008-.12.012-.256.012-.41 0-.606-.133-1.136-.4-1.588-.267-.453-.721-.683-1.363-.692-.216 0-.45.03-.7.09-.25.06-.55.162-.9.307s-.696.384-1.038.717c-.341.334-.646.73-.912 1.192a6.954 6.954 0 0 0-.638 1.703c-.158.65-.237 1.179-.237 1.589 0 .973.316 1.673.95 2.1.4.29.892.436 1.475.436.758 0 1.434-.29 2.025-.871.592-.58.984-1.213 1.175-1.896a.724.724 0 0 1 .075-.192c.017-.017.084-.026.201-.026.166 0 .25.039.25.116a.504.504 0 0 1-.013.115c-.242.914-.758 1.7-1.55 2.357-.792.658-1.642.986-2.551.986-.941 0-1.737-.32-2.387-.96-.651-.64-.976-1.49-.976-2.55ZM212.669 1c0-.042-.168-.07-.504-.081-.141 0-.233-.003-.274-.01-.041-.005-.062-.036-.062-.09 0-.006.006-.04.018-.1.035-.12.062-.187.079-.199.018-.012.59-.018 1.715-.018 1.12.006 1.718.015 1.794.027.378.067.693.215.946.444.254.23.383.534.389.915 0 .465-.194.89-.583 1.277-.407.41-.931.67-1.574.778-.041.006-.35.013-.928.019h-.839l-.265 1.077c-.177.7-.266 1.072-.266 1.114 0 .024.003.04.009.045a.278.278 0 0 0 .212.054c.065-.005.162 0 .292.019h.274a.338.338 0 0 1 .053.1.615.615 0 0 1-.062.271c-.029.03-.076.045-.141.045l-.327-.009a31.92 31.92 0 0 0-.884-.009h-.84c-.194 0-.3.003-.318.01-.106 0-.159-.03-.159-.091 0-.012.009-.054.026-.127.024-.097.047-.15.071-.163a.717.717 0 0 1 .203-.027c.159 0 .336-.01.531-.027.082-.018.138-.055.168-.109.017-.024.229-.863.636-2.518.407-1.654.61-2.526.61-2.617Zm3.164.67a.882.882 0 0 0-.017-.19 1.12 1.12 0 0 0-.08-.2.43.43 0 0 0-.221-.198 2.808 2.808 0 0 0-.433-.145 13.892 13.892 0 0 0-.707-.018h-.31c-.106 0-.191.003-.256.009-.065.006-.1.006-.106 0-.077.006-.13.033-.159.081-.012.036-.068.269-.168.698-.1.428-.203.845-.309 1.25-.106.404-.159.61-.159.615 0 .012.238.018.716.018h.309c.66 0 1.131-.15 1.414-.453.159-.163.28-.401.362-.715.083-.314.124-.565.124-.752ZM216.488 5.3a.338.338 0 0 1-.269-.116.413.413 0 0 1-.1-.282c0-.303.111-.565.331-.787.221-.222.496-.333.825-.333.379 0 .696.12.95.358.254.24.383.549.388.929 0 .183-.042.358-.125.525a1.851 1.851 0 0 1-.3.435 8.401 8.401 0 0 1-.5.474c-.15.132-.359.329-.625.589l-.369.358.475.007c.654 0 1.002-.01 1.044-.032.029-.009.079-.199.15-.57v-.02h.25v.02c-.005.013-.032.207-.082.583-.05.375-.081.572-.093.589v.019h-2.319v-.199c0-.03.013-.061.038-.096.025-.034.087-.108.187-.224.121-.136.225-.256.313-.358.037-.043.108-.122.212-.237l.213-.237.181-.211c.083-.099.141-.171.175-.218a6.52 6.52 0 0 1 .143-.192c.063-.081.107-.15.132-.205.025-.056.056-.117.093-.186a.836.836 0 0 0 .082-.205c.016-.068.031-.132.043-.192.013-.06.019-.13.019-.211 0-.269-.071-.502-.212-.698-.142-.196-.344-.294-.607-.294a.618.618 0 0 0-.362.108.77.77 0 0 0-.219.212.475.475 0 0 0-.062.121c0 .005.01.007.031.007.075 0 .152.03.231.09.079.06.119.157.119.294a.381.381 0 0 1-.1.269.382.382 0 0 1-.281.115ZM210.318 12.542a.627.627 0 0 0 .018-.072c.005-.03.02-.097.044-.2a1.71 1.71 0 0 1 .088-.28 8.51 8.51 0 0 1 .133-.299.983.983 0 0 1 .176-.272c.065-.066.142-.132.23-.199a.398.398 0 0 1 .292-.081.91.91 0 0 1 .451.108c.129.073.221.14.274.2.053.06.085.12.097.18.012.037.021.055.027.055a.337.337 0 0 0 .07-.063c.283-.314.61-.471.981-.471h.027c.283 0 .495.124.636.371a.882.882 0 0 1 .071.335.738.738 0 0 1-.115.435.555.555 0 0 1-.23.208.485.485 0 0 1-.221.036.397.397 0 0 1-.283-.1.346.346 0 0 1-.106-.262c0-.29.165-.483.495-.58-.129-.078-.235-.117-.318-.117-.33 0-.633.223-.91.67a1.238 1.238 0 0 0-.133.299 66.71 66.71 0 0 0-.3 1.204c-.201.846-.316 1.295-.345 1.35a.392.392 0 0 1-.38.244.297.297 0 0 1-.186-.054.329.329 0 0 1-.097-.109c-.018-.036-.024-.066-.018-.09 0-.079.118-.598.354-1.558.236-.96.353-1.494.353-1.603 0-.236-.076-.353-.229-.353-.124 0-.23.084-.319.253a2.69 2.69 0 0 0-.212.553c-.053.2-.085.308-.097.326-.012.012-.059.018-.141.018h-.124c-.035-.036-.053-.063-.053-.082ZM214.8 13.753a.338.338 0 0 1-.269-.115.414.414 0 0 1-.1-.282c0-.303.111-.565.331-.787.221-.222.496-.333.825-.333.379 0 .696.12.95.358.254.24.383.549.388.929 0 .183-.042.358-.125.525a1.851 1.851 0 0 1-.3.435 8.401 8.401 0 0 1-.5.474c-.15.132-.359.329-.625.589l-.369.359.475.006c.654 0 1.002-.01 1.044-.032.029-.009.079-.199.15-.57v-.02h.25v.02c-.005.013-.032.207-.082.583-.05.375-.081.572-.093.589v.019h-2.319v-.198c0-.03.013-.062.038-.096.025-.035.087-.11.187-.225.121-.136.225-.256.313-.358.037-.043.108-.122.212-.237l.213-.237.181-.211c.083-.099.141-.171.175-.218.033-.047.081-.111.143-.192.063-.081.107-.15.132-.205.025-.055.056-.117.093-.186a.836.836 0 0 0 .082-.205c.016-.068.031-.132.043-.192.013-.06.019-.13.019-.21 0-.27-.071-.502-.212-.699a.703.703 0 0 0-.606-.294.619.619 0 0 0-.363.108.77.77 0 0 0-.219.212.475.475 0 0 0-.062.122c0 .004.01.006.031.006.075 0 .152.03.231.09.079.06.119.158.119.294a.381.381 0 0 1-.1.269.382.382 0 0 1-.281.115Z"/></g><defs><clipPath id="a"><path fill="#fff" transform="translate(0 .5)" d="M0 0h220v16H0z"/></clipPath></defs></svg>